<?xml version="1.0" encoding="utf-8"?>
<!-- Generator: Adobe Illustrator 26.0.3, SVG Export Plug-In . SVG Version: 6.00 Build 0)  -->
<svg version="1.1" id="Layer_1" xmlns="http://www.w3.org/2000/svg" xmlns:xlink="http://www.w3.org/1999/xlink" x="0px" y="0px"
	 viewBox="0 0 600 600" style="enable-background:new 0 0 600 600;" xml:space="preserve">
<style type="text/css">
	.st0{fill:#22D3EE;}
	.st1{fill:#67E8F9;}
</style>
<path class="st0" d="M188.29,116.62L188.29,116.62c-9.15,4.29-20.05,0.35-24.34-8.8L141.1,59.08c-4.29-9.15-0.35-20.05,8.8-24.34
	l0,0c9.15-4.29,20.05-0.35,24.34,8.8l22.85,48.74C201.39,101.43,197.45,112.33,188.29,116.62z"/>
<path class="st0" d="M127.89,219.45L127.89,219.45c3.42,9.51-1.53,20-11.04,23.41l-50.66,18.19c-9.51,3.42-20-1.53-23.41-11.04l0,0
	c-3.42-9.51,1.53-20,11.04-23.41l50.66-18.19C113.99,204.99,124.47,209.93,127.89,219.45z"/>
<path class="st0" d="M237.7,456.31L237.7,456.31c3.42,9.51-1.53,20-11.04,23.41L176,497.91c-9.51,3.42-20-1.53-23.41-11.04l0,0
	c-3.42-9.51,1.53-20,11.04-23.41l50.66-18.19C223.8,441.85,234.29,446.79,237.7,456.31z"/>
<path class="st0" d="M244.56,309.24L244.56,309.24c5.97,8.16,4.19,19.61-3.97,25.58l-43.45,31.78c-8.16,5.97-19.61,4.19-25.58-3.97
	l0,0c-5.97-8.16-4.19-19.61,3.97-25.58l43.45-31.78C227.14,299.3,238.59,301.08,244.56,309.24z"/>
<path class="st0" d="M485.33,219.45L485.33,219.45c3.42,9.51-1.53,20-11.04,23.41l-50.66,18.19c-9.51,3.42-20-1.53-23.41-11.04l0,0
	c-3.42-9.51,1.53-20,11.04-23.41l50.66-18.19C471.43,204.99,481.91,209.93,485.33,219.45z"/>
<path class="st0" d="M344.8,64.22L344.8,64.22c8.75,5.05,11.75,16.25,6.7,25l-26.92,46.62c-5.05,8.75-16.25,11.75-25,6.7l0,0
	c-8.75-5.05-11.75-16.25-6.7-25l26.92-46.62C324.85,62.17,336.04,59.17,344.8,64.22z"/>
<path class="st0" d="M506.95,413.12L506.95,413.12c-1.37,10.02-10.6,17.02-20.61,15.65L433,421.48
	c-10.02-1.37-17.02-10.6-15.65-20.61v0c1.37-10.02,10.6-17.02,20.61-15.65l53.34,7.29C501.31,393.87,508.32,403.1,506.95,413.12z"/>
<path class="st0" d="M390.91,577.13L390.91,577.13c-9.15,4.29-20.05,0.35-24.34-8.8l-22.85-48.74c-4.29-9.15-0.35-20.05,8.8-24.34
	l0,0c9.15-4.29,20.05-0.35,24.34,8.8l22.85,48.74C404,561.94,400.06,572.84,390.91,577.13z"/>
<path class="st1" d="M249.09,88.52c-6.77-2.34-13.82-4.09-21.09-5.15c-0.16-0.03-0.25-0.05-0.25-0.05s-0.01,0.01-0.01,0.01
	c-5.44-0.78-11-1.21-16.65-1.21c-64.22,0-116.28,52.06-116.28,116.28c0,53.04,35.53,97.75,84.07,111.72
	c2.78,1.32,5.97,2.14,9.67,2.36c0.04,0,0.07,0.01,0.11,0.01c4.66,0.91,9.42,1.53,14.25,1.86c25.98,5.68,27.44,21.82,22.71,36.19
	c-5.86,7.83-10.74,16.43-14.5,25.61c-0.02,0.03-0.03,0.04-0.03,0.04l0.02,0.01c-5.55,13.57-8.63,28.41-8.63,43.97
	c0,64.22,52.06,116.28,116.28,116.28c55.1,0,101.22-38.34,113.21-89.79l0.03,0.01C510.33,186.66,315.63,107.57,249.09,88.52z"/>
<circle class="st0" cx="321.98" cy="425.58" r="63.52"/>
<circle class="st0" cx="207.86" cy="190.88" r="63.52"/>
<circle class="st0" cx="321.98" cy="283.47" r="44.14"/>
</svg>
